<svg viewBox="0 0 403 241" xmlns="http://www.w3.org/2000/svg">
  <g>
    <path d="M370.955 75.113C365.878 78.2612 364.308 84.914 367.464 89.9846C375.739 103.279 380.113 118.502 380.113 134C380.113 180.154 342.479 217.7 296.219 217.7C271.099 217.7 247.512 206.603 231.496 187.255C227.691 182.654 220.877 182.006 216.26 185.802C211.648 189.598 210.999 196.408 214.804 201.003C234.949 225.346 264.621 239.3 296.219 239.3C354.414 239.3 401.763 192.061 401.763 134C401.763 114.468 396.258 95.309 385.861 78.5906C382.705 73.52 376.021 71.9594 370.955 75.113Z" fill="black"/>
    <path d="M296.219 50.3C304.202 50.3 312.115 51.461 319.747 53.6912L300.078 62.0234C294.573 64.3562 292.008 70.6904 294.341 76.1822C296.089 80.297 300.094 82.7702 304.31 82.7702C305.723 82.7702 307.152 82.4894 308.532 81.9062L350.809 64.0052C356.314 61.6724 358.879 55.3382 356.547 49.8464L338.604 7.66699C336.266 2.17519 329.912 -0.389807 324.412 1.94299C318.908 4.27579 316.342 10.61 318.675 16.1018L325.852 32.9768C316.25 30.1634 306.286 28.7 296.219 28.7C238.024 28.7 190.675 75.9392 190.675 134C190.675 180.154 153.042 217.7 106.781 217.7C60.5206 217.7 22.8875 180.154 22.8875 134C22.8875 87.8462 60.5206 50.3 106.781 50.3C131.901 50.3 155.488 61.397 171.504 80.7452C175.314 85.3568 182.134 85.9994 186.74 82.1978C191.352 78.4016 192.001 71.5922 188.196 66.9968C168.051 42.6536 138.379 28.7 106.781 28.7C48.586 28.7 1.23749 75.9392 1.23749 134C1.23749 192.061 48.586 239.3 106.781 239.3C164.976 239.3 212.325 192.061 212.325 134C212.325 87.8462 249.958 50.3 296.219 50.3Z" fill="black"/>
    <path d="M68.9612 79.9008H111.356C135.519 79.9008 143.153 92.0911 143.153 112.925C143.153 132.308 136.679 138.9 123.91 143.611C125.024 145.72 131.277 157.385 134.959 164.27C136.629 167.148 137.823 170.915 140.973 172.262C142.832 173.057 146.036 172.818 148.64 172.79V181.31C148.64 182.364 148.865 184.098 148.415 184.778C147.697 185.86 144.75 185.456 143.003 185.456C137.419 185.456 133.425 184.531 130.299 182.139C126.218 179.015 124.614 173.91 121.955 169.321C117.796 161.23 113.637 153.137 109.477 145.044H91.9629V185.456H80.462C78.4654 185.456 78.0566 185.116 78.0566 182.817C78.0566 180.519 77.9815 92.5675 77.9815 92.5675H70.5397C69.7042 92.5675 68.9612 91.8512 68.9612 90.9087V79.9008ZM91.9629 92.5675V132.679H105.794C115.757 132.679 122.841 132.193 126.616 126.119C129.104 122.116 128.946 116.002 128.946 109.381C128.946 105.265 128.261 101.846 126.691 99.2778C122.944 93.1463 115.945 92.5675 105.944 92.5675H91.9629Z" fill="black"/>
  </g>
</svg>
